<svg xmlns="http://www.w3.org/2000/svg" viewBox="0 0 32 32" width="32" height="32">
  <rect width="32" height="32" fill="#0a0a0a"/>
  <g transform="translate(7.4569 24.6178) scale(0.015563 -0.015563)" fill="#818cf8">
    <path d="M460.74 -24.56Q354.56 -24.56 268.78 14.63Q183.00 53.82 132.90 129.92Q82.80 206.02 82.80 316.20Q82.80 411.48 119.54 472.38Q156.28 533.28 218.43 569.04Q280.58 604.80 357.13 622.79Q433.68 640.78 513.30 650.06Q612.22 661.98 674.05 669.52Q735.88 677.06 765.48 694.51Q795.08 711.96 795.08 751.34V756.98Q795.08 819.60 770.97 862.97Q746.86 906.34 699.18 929.55Q651.50 952.76 580.52 952.76Q508.08 952.76 455.76 930.28Q403.44 907.80 370.64 873.09Q337.84 838.38 321.82 800.28L114.80 853.50Q152.94 954.06 223.96 1015.07Q294.98 1076.08 386.85 1104.04Q478.72 1132.00 577.50 1132.00Q644.84 1132.00 720.84 1115.89Q796.84 1099.78 863.70 1057.98Q930.56 1016.18 972.80 939.84Q1015.04 863.50 1015.04 742.22V0H802.22V153.08H790.94Q769.24 109.76 726.25 68.80Q683.26 27.84 617.52 1.64Q551.78 -24.56 460.74 -24.56ZM509.56 151.54Q599.84 151.54 663.71 186.94Q727.58 222.34 761.69 279.98Q795.80 337.62 795.80 402.56V546.22Q783.90 534.48 750.32 524.79Q716.74 515.10 674.10 507.64Q631.46 500.18 591.10 494.95Q550.74 489.72 525.10 486.54Q463.34 478.72 411.70 459.76Q360.06 440.80 329.66 405.82Q299.26 370.84 299.26 313.14Q299.26 260.00 326.56 224.15Q353.86 188.30 401.18 169.92Q448.50 151.54 509.56 151.54Z"/>
  </g>
</svg>
